<svg xmlns="http://www.w3.org/2000/svg" xmlns:xlink="http://www.w3.org/1999/xlink" width="22px" height="28px">
    <path fill-rule="evenodd"  fill="rgb(255, 255, 255)"
          d="M20.212,8.221 L21.753,7.648 L20.212,7.075 L21.550,6.320 L19.865,5.951 L20.948,5.042 L19.184,4.893 L19.971,3.865 L18.195,3.940 L18.656,2.833 L16.937,3.130 L17.053,1.986 L15.457,2.493 L15.225,1.357 L13.813,2.055 L13.241,0.970 L12.068,1.831 L11.177,0.839 L10.288,1.831 L9.115,0.970 L8.542,2.055 L7.130,1.357 L6.899,2.493 L5.302,1.986 L5.419,3.129 L3.700,2.833 L4.160,3.940 L2.384,3.865 L3.171,4.893 L1.407,5.042 L2.490,5.951 L0.805,6.319 L2.143,7.075 L0.602,7.648 L2.143,8.221 L0.805,8.976 L2.490,9.345 L1.407,10.254 L3.171,10.404 L2.384,11.431 L4.160,11.357 L3.699,12.463 L5.419,12.167 L5.302,13.310 L5.999,13.089 L2.217,23.641 L6.724,26.857 L11.171,14.450 L11.177,14.458 L11.235,14.392 L15.692,27.033 L20.217,23.934 L16.398,13.102 L17.053,13.310 L16.937,12.167 L18.655,12.463 L18.195,11.357 L19.971,11.431 L19.184,10.404 L20.948,10.254 L19.865,9.345 L21.550,8.977 L20.212,8.221 Z"/>
</svg>