<svg
        xmlns="http://www.w3.org/2000/svg"
        xmlns:xlink="http://www.w3.org/1999/xlink"
        width="29px" height="25px">
    <path fill-rule="evenodd"  fill="rgb(255, 255, 255)"
          d="M28.510,6.987 C28.497,6.309 28.369,3.399 27.179,2.860 C24.730,1.751 18.677,0.865 14.582,0.865 C10.488,0.865 4.435,1.751 1.985,2.860 C0.794,3.400 0.667,6.314 0.654,6.989 C0.634,7.186 0.635,7.379 0.664,7.553 L0.897,8.935 C1.020,9.692 1.638,10.186 2.278,10.039 L7.649,8.808 C8.287,8.662 8.705,7.930 8.582,7.174 L8.303,5.469 C8.798,5.387 9.295,5.309 9.787,5.238 L9.627,7.999 C9.627,7.999 1.615,13.053 1.615,14.932 C1.615,16.810 1.615,24.109 1.615,24.109 L14.582,24.109 L27.549,24.109 C27.549,24.109 27.549,16.749 27.549,14.932 C27.549,13.115 19.538,7.999 19.538,7.999 L19.377,5.238 C19.869,5.309 20.366,5.387 20.862,5.469 L20.583,7.174 C20.459,7.930 20.877,8.662 21.515,8.808 L26.887,10.039 C27.526,10.186 28.144,9.692 28.267,8.935 L28.500,7.553 C28.529,7.379 28.530,7.185 28.510,6.987 ZM14.582,4.815 C15.080,4.815 16.990,4.921 17.556,5.006 C17.556,4.994 17.370,7.733 17.366,7.725 L14.582,7.725 L11.798,7.725 L11.626,5.004 C12.706,4.886 13.717,4.815 14.582,4.815 ZM14.582,20.345 C12.514,20.345 10.838,18.499 10.838,16.222 C10.838,13.946 12.514,12.099 14.582,12.099 C16.651,12.099 18.327,13.946 18.327,16.222 C18.327,18.499 16.651,20.345 14.582,20.345 Z"/>
</svg>