<svg
        xmlns="http://www.w3.org/2000/svg"
        xmlns:xlink="http://www.w3.org/1999/xlink"
        width="19px" height="21px">
    <path fill-rule="evenodd"  stroke-width="1px" stroke="rgb(45, 136, 148)" fill="rgb(41, 192, 212)"
          d="M12.174,10.172 L12.174,17.275 L4.232,17.275 L4.232,16.997 L3.825,16.997 L3.825,5.904 L11.869,5.904 L11.970,5.904 L11.970,6.130 C12.667,5.166 13.157,4.489 13.157,4.489 L13.221,4.401 L15.341,6.669 L12.174,10.172 ZM11.767,6.181 C11.571,6.181 4.225,6.181 4.029,6.181 C4.029,6.448 4.029,16.453 4.029,16.720 C4.046,16.720 4.117,16.720 4.232,16.720 C5.445,16.720 11.588,16.720 11.767,16.720 C11.767,16.572 11.767,13.436 11.767,10.623 L6.757,16.163 L4.156,10.549 L6.621,9.989 C6.621,9.989 7.159,12.292 7.246,12.664 C7.400,12.450 10.068,8.760 11.767,6.412 C11.767,6.283 11.767,6.202 11.767,6.181 Z"/>
</svg>