<?xml version="1.0" standalone="no"?>
<!DOCTYPE svg PUBLIC "-//W3C//DTD SVG 20010904//EN"
 "http://www.w3.org/TR/2001/REC-SVG-20010904/DTD/svg10.dtd">
<svg version="1.0" xmlns="http://www.w3.org/2000/svg"
 width="126.000000pt" height="126.000000pt" viewBox="0 0 126.000000 126.000000"
 preserveAspectRatio="xMidYMid meet">
<metadata>
Created by potrace 1.11, written by Peter Selinger 2001-2013
</metadata>
<g transform="translate(0.000000,126.000000) scale(0.100000,-0.100000)"
fill="#000000" stroke="none">
<path d="M560 1130 c-168 -18 -284 -55 -330 -105 -22 -23 -25 -35 -24 -98 0
-52 7 -87 23 -124 13 -29 21 -59 18 -67 -3 -7 -25 -16 -49 -20 -24 -4 -61 -17
-82 -29 -89 -51 -101 -115 -40 -234 70 -138 190 -290 255 -324 84 -42 128 -23
262 112 53 55 102 99 108 99 6 0 30 -20 55 -45 24 -25 50 -45 59 -45 9 0 14
-3 12 -7 -6 -10 43 -14 63 -6 8 3 18 7 22 7 3 1 17 10 30 21 13 11 36 30 52
43 16 12 25 22 20 22 -5 1 1 6 13 13 12 7 23 17 25 22 1 6 22 28 46 50 42 38
78 92 74 108 -1 4 2 7 6 7 12 0 34 70 34 106 0 39 -6 59 -20 76 -6 8 -9 17 -7
20 7 6 -60 58 -74 58 -6 0 -11 5 -11 10 0 6 -6 10 -13 10 -8 0 -28 7 -45 15
-23 12 -30 21 -27 38 8 50 8 64 -2 98 -21 72 -135 152 -233 164 -85 10 -154
12 -220 5z"/>
</g>
</svg>
